<svg width="27" height="27" viewBox="0 0 27 27" fill="none" xmlns="http://www.w3.org/2000/svg">
<path d="M13.5 26.4368C6.31177 26.4368 0.5 20.625 0.5 13.4368C0.5 6.24853 6.31177 0.436768 13.5 0.436768C20.6882 0.436768 26.5 6.24853 26.5 13.4368C26.5 20.625 20.6882 26.4368 13.5 26.4368ZM13.5 1.96618C7.15294 1.96618 2.02941 7.08971 2.02941 13.4368C2.02941 19.7838 7.15294 24.9074 13.5 24.9074C19.8471 24.9074 24.9706 19.7838 24.9706 13.4368C24.9706 7.08971 19.8471 1.96618 13.5 1.96618Z" fill="#E6E6E6"/>
<path d="M13.2706 20.8543L12.2 19.7837L18.5471 13.4367L12.2 7.08963L13.2706 6.01904L20.6882 13.4367L13.2706 20.8543Z" fill="#E6E6E6"/>
<path d="M6.61768 12.6721H19.6177V14.2015H6.61768V12.6721Z" fill="#E6E6E6"/>
</svg>
