<svg width="27" height="27" viewBox="0 0 27 27" fill="none" xmlns="http://www.w3.org/2000/svg">
<path d="M13.5 26.0176C6.31177 26.0176 0.5 20.2058 0.5 13.0176C0.5 5.82934 6.31177 0.0175781 13.5 0.0175781C20.6882 0.0175781 26.5 5.82934 26.5 13.0176C26.5 20.2058 20.6882 26.0176 13.5 26.0176ZM13.5 1.54699C7.15294 1.54699 2.02941 6.67052 2.02941 13.0176C2.02941 19.3646 7.15294 24.4882 13.5 24.4882C19.8471 24.4882 24.9706 19.3646 24.9706 13.0176C24.9706 6.67052 19.8471 1.54699 13.5 1.54699Z" fill="#E6E6E6"/>
<path d="M13.2708 20.4351L12.2002 19.3646L18.5473 13.0175L12.2002 6.67044L13.2708 5.59985L20.6884 13.0175L13.2708 20.4351Z" fill="#E6E6E6"/>
<path d="M6.61768 12.2529H19.6177V13.7823H6.61768V12.2529Z" fill="#E6E6E6"/>
</svg>
