<svg width="27" height="27" viewBox="0 0 27 27" fill="none" xmlns="http://www.w3.org/2000/svg">
<path d="M13.5 26.5332C6.31177 26.5332 0.5 20.7214 0.5 13.5332C0.5 6.34497 6.31177 0.533203 13.5 0.533203C20.6882 0.533203 26.5 6.34497 26.5 13.5332C26.5 20.7214 20.6882 26.5332 13.5 26.5332ZM13.5 2.06261C7.15294 2.06261 2.02941 7.18614 2.02941 13.5332C2.02941 19.8803 7.15294 25.0038 13.5 25.0038C19.8471 25.0038 24.9706 19.8803 24.9706 13.5332C24.9706 7.18614 19.8471 2.06261 13.5 2.06261Z" fill="#191818"/>
<path d="M13.2708 20.9507L12.2002 19.8801L18.5473 13.5331L12.2002 7.18601L13.2708 6.11542L20.6884 13.5331L13.2708 20.9507Z" fill="#191818"/>
<path d="M6.61719 12.7685H19.6172V14.2979H6.61719V12.7685Z" fill="#191818"/>
</svg>
