<svg width="48" height="48" viewBox="0 0 48 48" fill="none" xmlns="http://www.w3.org/2000/svg">
<path d="M24.6959 28.1335C24.6959 29.335 24.1187 30.4013 23.2272 31.071V36.2117C23.2272 36.796 22.9951 37.3563 22.5819 37.7695C22.1687 38.1827 21.6084 38.4148 21.024 38.4148C20.4397 38.4148 19.8794 38.1827 19.4662 37.7695C19.053 37.3563 18.8209 36.796 18.8209 36.2117V31.071C18.3202 30.6955 17.9238 30.1982 17.6693 29.6264C17.4149 29.0545 17.3108 28.4272 17.367 27.8038C17.4232 27.1804 17.6378 26.5818 17.9905 26.0647C18.3431 25.5476 18.8221 25.1292 19.3819 24.8493C19.9418 24.5694 20.5638 24.4372 21.1891 24.4654C21.8144 24.4935 22.4221 24.681 22.9545 25.0101C23.4869 25.3391 23.9264 25.7988 24.2311 26.3455C24.5359 26.8921 24.6959 27.5076 24.6959 28.1335Z" fill="#4E4E4E"/>
<path d="M26.1647 11.2429C26.1647 8.90564 27.0931 6.66414 28.7458 5.01148C30.3985 3.35882 32.64 2.43036 34.9772 2.43036C37.3144 2.43036 39.5559 3.35882 41.2086 5.01148C42.8612 6.66414 43.7897 8.90564 43.7897 11.2429V13.8132C43.7897 14.3001 43.5962 14.7671 43.2519 15.1114C42.9076 15.4557 42.4407 15.6491 41.9537 15.6491C41.4668 15.6491 40.9998 15.4557 40.6555 15.1114C40.3112 14.7671 40.1178 14.3001 40.1178 13.8132V11.2429C40.1178 9.87948 39.5762 8.57194 38.6121 7.60789C37.6481 6.64383 36.3405 6.10223 34.9772 6.10223C33.6138 6.10223 32.3063 6.64383 31.3422 7.60789C30.3781 8.57194 29.8365 9.87948 29.8365 11.2429V15.6491H32.774C34.3322 15.6491 35.8265 16.2681 36.9283 17.3699C38.0301 18.4716 38.649 19.966 38.649 21.5241V40.6179C38.649 42.176 38.0301 43.6703 36.9283 44.7721C35.8265 45.8739 34.3322 46.4929 32.774 46.4929H9.27405C7.7159 46.4929 6.22157 45.8739 5.1198 44.7721C4.01802 43.6703 3.39905 42.176 3.39905 40.6179V21.5241C3.39905 19.966 4.01802 18.4716 5.1198 17.3699C6.22157 16.2681 7.7159 15.6491 9.27405 15.6491H26.1647V11.2429ZM9.27405 18.5866C8.49497 18.5866 7.74781 18.8961 7.19692 19.447C6.64603 19.9979 6.33655 20.745 6.33655 21.5241V40.6179C6.33655 41.3969 6.64603 42.1441 7.19692 42.695C7.74781 43.2459 8.49497 43.5554 9.27405 43.5554H32.774C33.5531 43.5554 34.3003 43.2459 34.8512 42.695C35.4021 42.1441 35.7115 41.3969 35.7115 40.6179V21.5241C35.7115 20.745 35.4021 19.9979 34.8512 19.447C34.3003 18.8961 33.5531 18.5866 32.774 18.5866H9.27405Z" fill="#4E4E4E"/>
</svg>
