<svg width="48" height="48" viewBox="0 0 48 48" fill="none" xmlns="http://www.w3.org/2000/svg">
<g clip-path="url(#clip0_400_91)">
<path d="M25.5855 41.5617L6.41345 22.3896V26.3063C6.41345 27.3442 6.8247 28.343 7.56887 29.0676L22.8243 44.323C24.3518 45.8505 26.8389 45.8505 28.3664 44.323L40.5276 32.1617C42.0551 30.6342 42.0551 28.1471 40.5276 26.6196L25.5855 41.5617Z" fill="#4E4E4E"/>
<path d="M22.8243 34.5314C23.588 35.2951 24.5868 35.6868 25.5855 35.6868C26.5843 35.6868 27.583 35.2951 28.3468 34.5314L40.508 22.3701C42.0355 20.8426 42.0355 18.3555 40.508 16.828L25.2526 1.5726C24.528 0.848018 23.5293 0.436768 22.4914 0.436768H10.3301C8.17595 0.436768 6.41345 2.19927 6.41345 4.35343V16.5147C6.41345 17.5526 6.8247 18.5514 7.56887 19.2759L22.8243 34.5314ZM10.3301 4.35343H22.4914L37.7468 19.6089L25.5855 31.7701L10.3301 16.5147V4.35343Z" fill="#4E4E4E"/>
<path d="M14.7364 11.2076C16.0883 11.2076 17.1843 10.1116 17.1843 8.75968C17.1843 7.40774 16.0883 6.31177 14.7364 6.31177C13.3844 6.31177 12.2885 7.40774 12.2885 8.75968C12.2885 10.1116 13.3844 11.2076 14.7364 11.2076Z" fill="#4E4E4E"/>
</g>
<defs>
<clipPath id="clip0_400_91">
<rect width="47" height="47" fill="white" transform="translate(0.538452 0.436768)"/>
</clipPath>
</defs>
</svg>
