<svg width="50" height="50" viewBox="0 0 50 50" fill="none" xmlns="http://www.w3.org/2000/svg">
<path d="M21.4766 3.70005C21.9664 3.15308 22.5659 2.71554 23.2362 2.41599C23.9065 2.11644 24.6324 1.96161 25.3666 1.96161C26.1007 1.96161 26.8267 2.11644 27.4969 2.41599C28.1672 2.71554 28.7668 3.15308 29.2565 3.70005L31.084 5.74168C31.6063 6.32518 32.2532 6.78371 32.9767 7.08334C33.7002 7.38297 34.4818 7.51602 35.2637 7.47262L38.005 7.3212C38.7382 7.28078 39.4716 7.39547 40.1575 7.65779C40.8434 7.9201 41.4662 8.32414 41.9853 8.84352C42.5044 9.36289 42.9082 9.98593 43.1701 10.6719C43.4321 11.358 43.5465 12.0915 43.5057 12.8247L43.3543 15.5634C43.3113 16.3449 43.4445 17.1261 43.7441 17.8491C44.0437 18.5722 44.502 19.2186 45.0852 19.7407L47.1267 21.5682C47.6741 22.058 48.112 22.6577 48.4118 23.3283C48.7116 23.9988 48.8666 24.7251 48.8666 25.4596C48.8666 26.1941 48.7116 26.9203 48.4118 27.5909C48.112 28.2614 47.6741 28.8612 47.1267 29.3509L45.0852 31.1785C44.5017 31.7008 44.0432 32.3477 43.7435 33.0712C43.4439 33.7947 43.3109 34.5764 43.3543 35.3583L43.5057 38.0996C43.5461 38.8329 43.4314 39.5664 43.1691 40.2523C42.9068 40.9382 42.5028 41.561 41.9834 42.0801C41.4641 42.5993 40.841 43.003 40.155 43.265C39.4691 43.527 38.7355 43.6413 38.0023 43.6006L35.2637 43.4491C34.4823 43.4061 33.7011 43.5394 32.9781 43.839C32.2551 44.1386 31.6086 44.5969 31.0866 45.1801L29.2591 47.2217C28.7694 47.7691 28.1696 48.207 27.4991 48.5068C26.8286 48.8066 26.1024 48.9616 25.3679 48.9616C24.6334 48.9616 23.9072 48.8066 23.2366 48.5068C22.5661 48.207 21.9664 47.7691 21.4766 47.2217L19.6492 45.1801C19.1269 44.5966 18.48 44.138 17.7565 43.8384C17.033 43.5388 16.2513 43.4057 15.4694 43.4491L12.7282 43.6006C11.995 43.641 11.2615 43.5263 10.5756 43.264C9.88978 43.0017 9.26696 42.5976 8.74784 42.0782C8.22873 41.5589 7.82499 40.9358 7.56301 40.2498C7.30103 39.5638 7.18669 38.8302 7.22746 38.097L7.37888 35.3583C7.42187 34.5768 7.28864 33.7957 6.98903 33.0726C6.68943 32.3496 6.23111 31.7031 5.64799 31.1811L3.60642 29.3535C3.05904 28.8638 2.62115 28.264 2.32134 27.5935C2.02154 26.923 1.86658 26.1967 1.86658 25.4622C1.86658 24.7277 2.02154 24.0014 2.32134 23.3309C2.62115 22.6603 3.05904 22.0606 3.60642 21.5708L5.64799 19.7433C6.23147 19.221 6.68999 18.5741 6.98961 17.8505C7.28923 17.127 7.42227 16.3453 7.37888 15.5634L7.22746 12.8221C7.18742 12.0891 7.30239 11.3559 7.56487 10.6703C7.82735 9.98473 8.23143 9.36221 8.75075 8.84337C9.27007 8.32453 9.89295 7.92102 10.5788 7.65919C11.2646 7.39735 11.9979 7.28307 12.7308 7.32381L15.4694 7.47523C16.2509 7.51823 17.032 7.38499 17.7551 7.08538C18.4781 6.78576 19.1245 6.32743 19.6465 5.74429L21.4766 3.70005Z" stroke="#4E4E4E" stroke-width="2"/>
<path d="M18.8398 18.934H18.8659V18.9601H18.8398V18.934ZM31.8933 31.9878H31.9194V32.014H31.8933V31.9878Z" stroke="#4E4E4E" stroke-width="3" stroke-linejoin="round"/>
<path d="M33.1987 17.6285L17.5345 33.2932" stroke="#4E4E4E" stroke-width="2" stroke-linecap="round" stroke-linejoin="round"/>
</svg>
