<svg width="59" height="48" viewBox="0 0 59 48" fill="none" xmlns="http://www.w3.org/2000/svg">
<g clip-path="url(#clip0_400_103)">
<path d="M6.60339 19.0137L24.2001 37.7967L15.7266 19.0137H6.60339ZM29.5385 40.819L39.3961 19.0137H19.6809L29.5385 40.819ZM15.8113 15.3983L21.5733 4.55215H14.1731L6.03849 15.3983H15.8113ZM34.8768 37.7967L52.4736 19.0137H43.3504L34.8768 37.7967ZM19.9069 15.3983H39.1701L33.4081 4.55215H25.6689L19.9069 15.3983ZM43.2656 15.3983H53.0385L44.9039 4.55215H37.5036L43.2656 15.3983ZM47.2482 1.67114L58.0944 16.1327C58.358 16.4716 58.4804 16.8623 58.4616 17.3049C58.4427 17.7474 58.2827 18.1287 57.9814 18.4488L30.866 47.3719C30.5271 47.7485 30.0846 47.9368 29.5385 47.9368C28.9924 47.9368 28.5499 47.7485 28.211 47.3719L1.09558 18.4488C0.794295 18.1287 0.634239 17.7474 0.615408 17.3049C0.596578 16.8623 0.718974 16.4716 0.982596 16.1327L11.8287 1.67114C12.1677 1.18156 12.6479 0.936768 13.2693 0.936768H45.8077C46.4291 0.936768 46.9093 1.18156 47.2482 1.67114Z" fill="#4E4E4E"/>
</g>
<defs>
<clipPath id="clip0_400_103">
<rect width="57.8462" height="47" fill="white" transform="translate(0.615356 0.936768)"/>
</clipPath>
</defs>
</svg>
