<svg width="28" height="28" viewBox="0 0 28 28" fill="none" xmlns="http://www.w3.org/2000/svg">
<path d="M14.0534 0.684154C6.7734 0.684154 0.840065 6.61749 0.840065 13.8975C0.840065 16.2308 1.4534 18.4975 2.60007 20.4975L0.733398 27.3508L7.7334 25.5108C9.66673 26.5642 11.8401 27.1242 14.0534 27.1242C21.3334 27.1242 27.2667 21.1908 27.2667 13.9108C27.2667 10.3775 25.8934 7.05749 23.4001 4.56415C22.1775 3.32963 20.7214 2.35078 19.1167 1.68464C17.5121 1.0185 15.7908 0.678398 14.0534 0.684154ZM14.0667 2.91082C17.0001 2.91082 19.7467 4.05749 21.8267 6.13749C22.8472 7.15818 23.6564 8.37017 24.2078 9.70405C24.7592 11.0379 25.042 12.4675 25.0401 13.9108C25.0401 19.9642 20.1067 24.8842 14.0534 24.8842C12.0801 24.8842 10.1467 24.3642 8.46673 23.3508L8.06673 23.1242L3.90673 24.2175L5.0134 20.1642L4.74673 19.7375C3.64613 17.9887 3.06362 15.9638 3.06673 13.8975C3.08006 7.84415 8.00006 2.91082 14.0667 2.91082ZM9.3734 7.79082C9.16006 7.79082 8.80006 7.87082 8.4934 8.20415C8.20006 8.53749 7.3334 9.35082 7.3334 10.9642C7.3334 12.5908 8.52006 14.1508 8.66673 14.3775C8.8534 14.6042 11.0134 17.9375 14.3334 19.3508C15.1201 19.7108 15.7334 19.9108 16.2134 20.0575C17.0001 20.3108 17.7201 20.2708 18.2934 20.1908C18.9334 20.0975 20.2401 19.3908 20.5201 18.6175C20.8001 17.8442 20.8001 17.1908 20.7201 17.0442C20.6267 16.9108 20.4134 16.8308 20.0801 16.6842C19.7467 16.4975 18.1201 15.6975 17.8267 15.5908C17.5201 15.4842 17.3334 15.4308 17.0801 15.7508C16.8667 16.0842 16.2267 16.8308 16.0401 17.0442C15.8401 17.2708 15.6534 17.2975 15.3334 17.1375C14.9867 16.9642 13.9201 16.6175 12.6667 15.4975C11.6801 14.6175 11.0267 13.5375 10.8267 13.2042C10.6667 12.8842 10.8134 12.6842 10.9734 12.5375C11.1201 12.3908 11.3334 12.1508 11.4667 11.9508C11.6401 11.7642 11.6934 11.6175 11.8001 11.4042C11.9067 11.1775 11.8534 10.9908 11.7734 10.8308C11.6934 10.6842 11.0267 9.03082 10.7467 8.37749C10.4801 7.73749 10.2134 7.81749 10.0001 7.80415C9.8134 7.80415 9.60006 7.79082 9.3734 7.79082Z" fill="#0F0E0E"/>
</svg>
